<svg width="1002" height="2070" viewBox="0 0 1002 2070" fill="none" xmlns="http://www.w3.org/2000/svg">
<path d="M138.001 1.46708C105.735 5.33375 82.1346 14.5337 59.868 32.4004C36.9346 50.8004 21.068 75.0671 12.4013 104.934L8.8013 117.334L8.26797 187.6C7.86797 247.867 7.6013 258 5.86797 258C4.8013 258 4.0013 258.534 4.0013 259.334C4.0013 260 3.2013 260.667 2.4013 260.667C1.06797 260.667 0.667969 269.2 0.667969 298.667C0.667969 328.134 1.06797 336.667 2.4013 336.667C3.2013 336.667 4.0013 337.334 4.0013 338C4.0013 338.8 4.8013 339.2 5.73464 339.067C6.93464 338.8 7.46797 349.067 7.73464 386.267L8.0013 434L4.4013 434.134C2.26797 434.134 1.46797 434.534 2.4013 434.934C3.2013 435.2 4.0013 436.134 4.0013 436.934C4.0013 437.734 3.2013 438 2.4013 437.6C1.06797 437.2 0.667969 451.734 0.667969 508.134C0.667969 564.534 1.06797 579.2 2.4013 578.667C3.2013 578.4 4.0013 578.934 4.0013 580.134C4.0013 581.2 4.93464 582.4 6.0013 582.8C7.6013 583.467 8.0013 586.934 8.0013 602.134V620.667L4.4013 620.8C2.26797 620.8 1.46797 621.2 2.4013 621.6C3.2013 621.867 4.0013 622.8 4.0013 623.6C4.0013 624.4 3.2013 624.667 2.4013 624.267C1.06797 623.867 0.667969 638.4 0.667969 694.667C0.667969 750.934 1.06797 765.467 2.4013 765.067C3.2013 764.667 4.0013 764.934 4.0013 765.734C4.0013 766.534 3.2013 767.467 2.4013 767.734C1.46797 768.134 2.26797 768.534 4.26797 768.534L8.0013 768.667L8.26797 1360.93L8.66797 1953.33L12.4013 1966C28.0013 2019.33 70.0013 2057.6 124.001 2067.33C130.135 2068.4 191.601 2068.93 345.868 2069.2C463.335 2069.47 560.135 2069.33 561.068 2068.93C562.401 2068.53 562.268 2068 560.668 2066.8C559.201 2065.73 596.135 2065.33 706.268 2065.47C787.601 2065.47 850.668 2065.2 846.668 2064.67C839.468 2063.73 839.335 2063.73 845.201 2063.6C848.401 2063.47 854.535 2062.4 858.935 2061.2C863.335 2060.13 867.868 2059.47 869.201 2059.73C870.401 2060.13 869.735 2060.4 867.735 2060.53C865.468 2060.67 864.001 2061.47 864.001 2062.53C864.001 2066.93 851.868 2067.33 724.535 2067.33C655.068 2067.33 598.001 2067.6 597.735 2067.73C597.468 2068 656.001 2068.67 727.601 2069.2C866.935 2070.13 876.401 2069.87 896.935 2063.87C941.068 2051.07 976.535 2017.07 991.201 1973.33C999.201 1949.73 998.668 1994.8 998.668 1296.27C998.668 784.4 999.068 655.334 1000.4 655.334C1001.47 655.334 1001.47 654.934 1000.13 654.134C999.068 653.467 998.668 652 999.068 650.667C999.601 649.467 1000.4 648.8 1000.93 649.067C1001.6 649.467 1002 602.534 1002 544.667C1002 461.2 1001.6 439.867 1000.4 440.267C999.335 440.667 998.668 439.867 998.668 438C998.668 436.534 999.335 435.6 1000 436C1000.8 436.4 1001.33 436.134 1001.33 435.467C1001.33 434.667 1000.8 434 1000 434C999.068 434 998.668 382.934 998.668 283.6C998.668 120.4 998.668 119.334 991.201 97.3338C976.268 52.5337 938.801 17.4671 893.601 5.86708C876.668 1.60041 861.868 0.66708 807.335 0.933746L755.335 1.06708L798.001 2.13375C853.735 3.33375 860.401 3.86708 879.335 8.53375C934.401 22.1337 964.535 46.6671 982.668 92.6671C986.268 101.734 992.001 123.067 991.868 126.667C991.868 128.134 990.535 124.534 988.801 118.534C982.401 95.2004 968.801 72.2671 951.601 55.7337C923.335 28.6671 887.201 12.8004 841.335 7.46708C834.401 6.66708 696.668 6.00041 481.335 5.73375L132.668 5.33375L121.201 8.26708C99.868 13.7337 80.8013 22.5337 62.668 35.6004L55.3346 40.9337L61.3346 35.4671C69.468 28.1337 87.6013 17.4671 100.001 12.6671C116.801 6.26708 134.401 3.60041 168.668 2.26708L199.335 1.06708H170.668C154.935 1.06708 140.268 1.33375 138.001 1.46708ZM862.001 23.3337C883.735 25.8671 901.201 32.1337 919.201 43.7337C946.268 61.4671 964.801 87.8671 973.735 121.2L976.668 132V1035.33V1938.67L973.735 1949.47C960.668 1998.53 926.268 2032.53 877.335 2045.07L866.001 2048H502.668H139.335L126.001 2044.4C78.9346 2031.47 44.4013 1996.67 32.5346 1950C30.0013 1940.27 30.0013 1920.53 30.0013 1034.67C30.0013 150.667 30.0013 129.067 32.5346 120C46.8013 67.3337 90.4013 29.0671 142.668 23.4671C157.868 21.7337 847.468 21.7337 862.001 23.3337ZM992.935 134.267C992.535 135.2 992.268 134.534 992.268 132.667C992.268 130.8 992.535 130.134 992.935 130.934C993.201 131.867 993.201 133.467 992.935 134.267ZM982.001 1977.6C976.268 1992 971.468 2001.6 969.201 2003.33C968.801 2003.73 968.001 2005.33 967.468 2006.8C966.935 2008.4 963.335 2013.2 959.468 2017.47L952.268 2025.33L951.201 2021.47C950.401 2018 950.935 2016.93 955.868 2012.4C958.801 2009.6 961.335 2006.93 961.335 2006.4C961.335 2006 964.268 2001.73 967.735 1996.8C978.401 1982.4 982.401 1974.53 986.401 1961.33C986.801 1959.87 987.335 1959.47 987.601 1960.27C987.868 1961.07 985.335 1968.93 982.001 1977.6ZM948.935 2021.2C948.535 2022.27 948.801 2023.47 949.735 2023.73C950.668 2024 950.801 2024.8 950.268 2025.47C949.735 2026.13 948.801 2026 948.268 2025.33C947.735 2024.53 946.668 2023.87 945.735 2023.73C944.001 2023.33 944.135 2026.67 946.001 2028.27C946.535 2028.8 946.668 2028.53 946.135 2027.6C945.601 2026.8 945.735 2026 946.535 2026C949.601 2026 948.935 2028.4 944.935 2031.47C938.668 2036.4 937.601 2036.93 936.535 2035.2C936.001 2034.27 936.135 2034 936.801 2034.4C937.468 2034.8 939.601 2034 941.335 2032.67C943.868 2030.8 944.268 2029.73 943.201 2028.67C941.201 2026.67 935.868 2029.2 936.401 2031.73C936.535 2032.67 935.735 2033.2 934.535 2033.2C933.335 2033.07 932.401 2033.73 932.401 2034.67C932.401 2035.6 933.201 2036.13 934.268 2035.73C935.201 2035.33 936.001 2035.87 936.001 2037.07C936.001 2039.07 918.801 2048.67 915.068 2048.67C913.868 2048.67 912.268 2049.6 911.335 2050.93C910.401 2052.13 907.868 2053.07 905.601 2053.07C903.335 2053.07 901.735 2053.6 902.001 2054.13C902.801 2055.33 898.801 2056.93 897.201 2056C896.535 2055.6 893.735 2055.6 891.068 2056.13C887.068 2056.93 886.535 2057.2 888.668 2058C890.668 2058.67 888.668 2059.6 881.735 2061.2C870.535 2063.73 867.868 2063.73 875.335 2061.33L880.668 2059.6L876.001 2059.33C872.268 2059.2 871.868 2058.93 874.001 2058.13C875.468 2057.47 878.001 2057.6 879.735 2058.13C884.401 2059.87 886.401 2059.47 882.801 2057.47L879.601 2055.73L884.135 2054.8C886.668 2054.27 889.735 2053.73 890.935 2053.6C892.135 2053.47 892.801 2052.93 892.535 2052.4C891.468 2050.67 893.201 2051.2 896.935 2053.6C898.935 2054.93 900.135 2055.2 899.601 2054.27C898.935 2053.47 899.068 2052.67 899.601 2052.67C900.268 2052.67 902.001 2051.73 903.468 2050.53C905.868 2048.67 905.868 2048.53 902.668 2049.33C900.801 2049.73 904.401 2047.47 910.668 2044.4C922.535 2038.27 931.601 2032.53 940.801 2025.2C943.868 2022.8 946.668 2021.2 947.201 2021.6C947.601 2022.13 948.001 2021.73 948.001 2020.93C948.001 2020 948.401 2019.33 948.801 2019.33C949.201 2019.33 949.335 2020.13 948.935 2021.2ZM942.668 2029.87C942.668 2031.6 938.935 2032.8 938.001 2031.33C937.601 2030.8 938.135 2029.87 938.935 2029.6C941.601 2028.53 942.668 2028.53 942.668 2029.87ZM105.335 2058.27C110.801 2060.27 114.668 2061.87 113.868 2061.87C109.335 2062.13 80.668 2049.33 74.0013 2044.13C72.5346 2042.93 76.8013 2044.8 83.3346 2048.27C90.0013 2051.73 99.868 2056.27 105.335 2058.27ZM898.668 2051.33C898.668 2052 898.135 2052.67 897.335 2052.67C896.668 2052.67 896.001 2052 896.001 2051.33C896.001 2050.53 896.668 2050 897.335 2050C898.135 2050 898.668 2050.53 898.668 2051.33ZM895.601 2057.47C895.201 2057.87 894.001 2058 893.068 2057.6C892.001 2057.2 892.401 2056.8 893.868 2056.8C895.335 2056.67 896.135 2057.07 895.601 2057.47ZM119.601 2062.8C119.201 2063.2 118.001 2063.33 117.068 2062.93C116.001 2062.53 116.401 2062.13 117.868 2062.13C119.335 2062 120.135 2062.4 119.601 2062.8ZM125.735 2064.27C124.801 2064.53 123.201 2064.53 122.401 2064.27C121.468 2063.87 122.135 2063.6 124.001 2063.6C125.868 2063.6 126.535 2063.87 125.735 2064.27ZM868.935 2064.13C868.535 2064.53 867.335 2064.67 866.401 2064.27C865.335 2063.87 865.735 2063.47 867.201 2063.47C868.668 2063.33 869.468 2063.73 868.935 2064.13ZM133.735 2065.6C132.801 2065.87 130.935 2065.87 129.735 2065.6C128.401 2065.2 129.201 2064.93 131.335 2064.93C133.601 2064.93 134.535 2065.2 133.735 2065.6ZM370.401 2066.93C328.135 2067.2 258.535 2067.2 215.735 2066.93C172.935 2066.8 207.601 2066.67 292.668 2066.67C377.735 2066.67 412.668 2066.8 370.401 2066.93Z" fill="black"/>
<path d="M398.933 45.6C390.933 48.4 380.933 58.5333 378.266 66.5333C375.6 74.2667 375.333 84.2667 377.6 91.6C379.733 98.6667 389.066 108.933 396.933 112.8L403.333 116H501.333H599.333L605.466 112.933C618.4 106.533 625.466 96.1333 626.4 82.4C627.2 70.6667 623.866 61.7333 615.866 53.8667C604.533 42.8 609.733 43.3333 500.8 43.4667C418.533 43.4667 403.866 43.8667 398.933 45.6Z" fill="black"/>
<path d="M973.467 1991.07C972.667 1992.67 972 1994.67 972 1995.6C972 1996.53 972.933 1995.6 974 1993.47C975.2 1991.33 975.733 1989.33 975.467 1989.07C975.2 1988.67 974.267 1989.6 973.467 1991.07Z" fill="black"/>
<path d="M966.269 2000.93C964.269 2003.33 962.669 2006.4 962.669 2007.73C962.669 2009.2 961.469 2010.53 960.003 2010.93C957.203 2011.73 956.269 2014 958.803 2014C959.469 2014 959.736 2014.8 959.203 2015.6C958.803 2016.53 959.869 2015.6 961.736 2013.33C963.603 2011.2 964.803 2008.93 964.403 2008.4C964.136 2007.73 964.536 2007.33 965.336 2007.33C966.269 2007.33 966.669 2006.4 966.136 2005.33C965.736 2004.27 965.869 2003.33 966.536 2003.33C967.069 2003.33 968.269 2001.87 969.069 2000C971.069 1995.6 970.536 1995.73 966.269 2000.93Z" fill="black"/>
<path d="M953.599 2016.13C952.266 2017.6 952.266 2018 953.599 2018C954.799 2018 954.799 2018.4 953.333 2019.33C952.266 2020 951.733 2020.8 952.133 2021.33C952.533 2021.73 953.999 2020.8 955.333 2019.33C956.799 2017.6 957.333 2016.13 956.533 2015.47C955.866 2014.67 954.666 2014.93 953.599 2016.13Z" fill="black"/>
<path d="M924.8 2038C921.867 2040.27 918.667 2042 917.733 2042C916.8 2042 916 2042.53 916 2043.33C916 2044.93 922.8 2044.27 926.133 2042.13C928.4 2040.67 928.4 2040.67 925.333 2041.33C922.133 2042.13 922.133 2042 924.533 2040C926.267 2038.67 927.6 2038.4 928.533 2039.33C929.2 2040 930.533 2040.67 931.333 2040.67C932 2040.67 931.6 2040 930.267 2039.2C928.4 2038.13 928.133 2037.33 929.467 2035.87C931.733 2033.07 930.667 2033.6 924.8 2038Z" fill="black"/>
<path d="M907.735 2050.93C908.669 2051.33 909.869 2051.2 910.269 2050.8C910.802 2050.4 910.002 2050 908.535 2050.13C907.069 2050.13 906.669 2050.53 907.735 2050.93Z" fill="black"/>
<path d="M856.669 2063.33C854.935 2064 854.802 2064.53 856.002 2064.53C857.069 2064.53 859.202 2064 860.669 2063.33C862.402 2062.67 862.535 2062.13 861.335 2062.13C860.269 2062.13 858.135 2062.67 856.669 2063.33Z" fill="black"/>
<path d="M569.068 2068.27C571.468 2068.53 575.068 2068.53 577.068 2068.27C579.068 2068 577.068 2067.73 572.668 2067.73C568.268 2067.73 566.668 2068 569.068 2068.27Z" fill="black"/>
<path d="M584.4 2068.27C586.4 2068.53 589.6 2068.53 591.733 2068.27C593.733 2068 592 2067.73 588 2067.73C584 2067.73 582.267 2068 584.4 2068.27Z" fill="black"/>
</svg>
